# xmcd
#
# Track frame offsets:
#	150
#	23613
#	37076
#	42195
#	50277
#	55377
#	58809
#	69159
#	75684
#	82228
#	91678
#	111347
#	122129
#	131954
#	144442
#	149974
#	163437
#	168519
#	173357
#	178251
#
# Disc length: 2576 seconds
#
# Revision: 0
# Processed by: cddbd v1.5.1PL0 Copyright (c) Steve Scherf et al.
# Submitted via: EasyCDDAExtractor 4.5.2.1
#
DISCID=280a0e14
DTITLE=Gregory, James - The Legend Continues
DYEAR=1900
DGENRE=Country
TTITLE0=Lottery Winners
TTITLE1=Stupid Relatives
TTITLE2=Drunk Pilots
TTITLE3=Airplane Toilets
TTITLE4=Out of Gas
TTITLE5=Oxygen Masks
TTITLE6=Car Wrecks
TTITLE7=Covered Dish
TTITLE8=Riding Mower
TTITLE9=Weedeater
TTITLE10=Motorized Wheelchair
TTITLE11=Funeral Gossip
TTITLE12=Hay Bailer
TTITLE13=Pet Cemetary
TTITLE14=Fill It Up
TTITLE15=Polyester Pants
TTITLE16=Beeper
TTITLE17=Floatation Seats
TTITLE18=Speeding Tickets
TTITLE19=Will Work For Food
EXTD=
EXTT0=
EXTT1=
EXTT2=
EXTT3=
EXTT4=
EXTT5=
EXTT6=
EXTT7=
EXTT8=
EXTT9=
EXTT10=
EXTT11=
EXTT12=
EXTT13=
EXTT14=
EXTT15=
EXTT16=
EXTT17=
EXTT18=
EXTT19=
PLAYORDER=
